<svg width="1318" height="1155" viewBox="0 0 1318 1155" fill="none" xmlns="http://www.w3.org/2000/svg">
<path d="M854.102 108.043C794.04 41.6865 707.225 0 610.673 0C508.502 0 417.233 46.6809 357.031 119.878C157.932 131.298 0 296.37 0 498.33C0 637.995 75.5308 760.02 187.974 825.785C187.351 829.951 187.03 834.194 187.03 838.499C187.03 895.345 242.948 941.429 311.927 941.429C317.168 941.429 322.335 941.162 327.407 940.646C400.178 1067.44 553.637 1154.82 731.176 1154.82C979.013 1154.82 1179.92 984.536 1179.92 774.482C1179.92 771.436 1179.88 768.398 1179.8 765.369C1263.44 705.877 1318 608.161 1318 497.702C1318 343.393 1211.52 213.954 1068.03 178.848C1034.71 133.406 973.341 102.93 903.144 102.93C886.192 102.93 869.754 104.707 854.102 108.043Z" fill="white"/>
</svg>
