<svg width="174" height="176" viewBox="0 0 174 176" fill="none" xmlns="http://www.w3.org/2000/svg">
<path fill-rule="evenodd" clip-rule="evenodd" d="M87.7599 0.855484C39.5312 0.855484 0.434021 39.9526 0.434021 88.1814C0.434021 136.41 39.5312 175.507 87.7599 175.507C130.645 175.507 166.311 144.593 173.687 103.834C172.173 97.9667 169.727 92.4597 166.512 87.4715C167.027 84.9831 167.3 82.3931 167.3 79.7331C167.3 63.2454 156.837 49.4423 142.809 45.9005C140.614 33.2507 132.118 21.0516 119.306 14.1655C119.176 14.0956 119.045 14.0264 118.915 13.9579C117.564 10.2153 115.364 6.94437 112.576 4.43188C104.71 2.10466 96.3807 0.855484 87.7599 0.855484Z" fill="white"/>
<path fill-rule="evenodd" clip-rule="evenodd" d="M0 88.6216C0 70.8034 5.33651 54.2317 14.4984 40.4175C11.9918 46.0266 10.6142 52.1417 10.6142 58.5422C10.6142 67.7688 13.477 76.4023 18.4577 83.7821C18.3756 84.6854 18.3336 85.6004 18.3336 86.5252C18.3336 100.544 27.9776 112.311 40.9932 115.552C41.2608 128.124 49.8091 141.019 63.7705 147.849C63.8937 147.909 64.017 147.969 64.1404 148.028C67.1132 155.524 74.4295 160.824 82.9837 160.824C84.0412 160.824 85.0797 160.743 86.0934 160.587C93.7509 165.862 102.292 169.946 111.449 172.573C103.787 174.77 95.6941 175.948 87.3259 175.948C39.0971 175.948 0 136.85 0 88.6216Z" fill="#DAEAEF"/>
</svg>
