<svg width="1440" height="520" viewBox="0 0 1440 520" fill="none" xmlns="http://www.w3.org/2000/svg">
<path fill-rule="evenodd" clip-rule="evenodd" d="M822.072 41.9489L853.338 0L883.58 40.5746L899.864 17.2522L906.183 5.75629L912.502 17.2534L934.543 48.8205L931.918 52.5791L941.809 70.5736H936.414L952.246 89.4382L946.358 96.4542L953.909 110.194L961.018 99.9113L956.121 94.0072L956.557 93.4818H955.901L966.01 78.8581L961.229 73.5005L991.571 39.5025L1002.46 51.7014L1017.6 27.5582L1030.48 48.0965L1051.59 5.75629L1065.73 34.1091L1077.93 48.8205L1074.9 52.4776L1083.92 70.5736H1075.26L1090.87 89.4022L1086.91 94.1769L1092.42 105.219L1102.99 84.3732H1095.26L1107.23 60.7745L1104.53 56.8073L1122.95 29.7781L1124.08 27.5582L1124.95 29.2736L1143.72 56.8073L1140.96 60.8486L1144.35 67.5167L1167.72 33.9621L1196.56 75.3713L1194.23 78.7265L1208.02 96.6243H1197.62L1206.9 108.671L1210.39 101.278L1207.66 97.9287L1217.9 85.3809L1220.61 79.6367H1213.06L1219.71 65.5542L1217.35 62.7075L1225.95 52.33L1241.17 20.075L1256.4 52.3299L1265 62.7075L1262.64 65.5543L1269.28 79.6367H1261.65L1264.24 85.1188L1274.68 97.9287L1271.9 101.348L1275.69 109.383L1299.04 76.3427L1311.44 93.8964L1328.42 73.4224L1330.15 70.5736H1319.58L1328.23 56.3445L1325.33 52.8498L1344.12 30.1885L1358.97 5.75629L1373.58 29.7928L1392.7 52.8498L1389.76 56.4055L1398.37 70.5736H1388.4L1409.53 96.0579L1405.85 100.492L1421.74 126.641H1406.14L1440 182.348V520H0V182.348L31.8333 135.13H17.0474L33.0444 111.402L28.2718 105.736L43.5428 87.6067H39.1454L50.1044 71.3511L47.8242 68.6436L68.4039 44.2076L76.1843 32.6669L83.9662 44.2096L104.544 68.6436L102.264 71.3509L113.223 87.6067H108.826L113.492 93.1467L130.317 70.5736H122.887L139.211 46.6296L135.722 41.9489L166.989 0L197.231 40.5746L213.515 17.2522L219.833 5.75629L226.152 17.2534L248.193 48.8205L245.569 52.5791L255.459 70.5736H250.064L265.896 89.4382L260.008 96.4542L267.56 110.194L274.668 99.9113L269.771 94.0072L270.207 93.4818H269.551L279.661 78.8581L274.879 73.5005L305.221 39.5025L316.108 51.7014L331.247 27.5582L344.126 48.0965L365.243 5.75629L379.385 34.1091L391.578 48.8205L388.547 52.4776L397.572 70.5736H388.908L404.525 89.4022L400.564 94.1769L406.072 105.219L416.645 84.3732H408.911L420.881 60.7745L418.176 56.8073L436.603 29.7781L437.729 27.5582L438.599 29.2736L457.369 56.8073L454.614 60.8486L457.996 67.5167L481.369 33.9621L510.213 75.3713L507.876 78.7265L521.674 96.6243H511.266L520.553 108.671L524.043 101.278L521.311 97.9287L531.546 85.3809L534.257 79.6367H526.712L533.358 65.5542L530.999 62.7075L539.6 52.33L554.823 20.075L570.046 52.3299L578.647 62.7075L576.288 65.5543L582.934 79.6367H575.299L577.887 85.1188L588.335 97.9287L585.546 101.348L589.338 109.383L612.688 76.3427L625.093 93.8964L642.07 73.4224L643.801 70.5736H633.228L641.876 56.3445L638.978 52.8498L657.773 30.1885L672.622 5.75629L687.231 29.7928L706.355 52.8498L703.406 56.4055L712.016 70.5736H702.045L722.977 95.8166L729.892 87.6067H725.495L736.454 71.3511L734.174 68.6436L754.754 44.2076L762.534 32.6669L770.316 44.2096L790.894 68.6436L788.614 71.3509L799.573 87.6067H795.175L799.842 93.1467L816.666 70.5736H809.237L825.561 46.6296L822.072 41.9489ZM1278.64 115.644L1278.46 115.252H1278.92L1278.64 115.644ZM592.293 115.644L592.108 115.252H592.571L592.293 115.644Z" fill="#334B53"/>
<path fill-rule="evenodd" clip-rule="evenodd" d="M617.928 221.772L586.662 174L556.42 220.207L540.136 193.647L533.817 180.555L527.498 193.648L505.457 229.597L508.082 233.877L498.191 254.37H503.586L487.755 275.853L493.642 283.843L486.091 299.489L478.982 287.78L483.879 281.056L483.444 280.458H484.099L473.99 263.804L478.771 257.703L448.429 218.986L437.543 232.878L422.403 205.383L409.525 228.773L388.407 180.555L374.265 212.844L362.073 229.597L365.104 233.762L356.078 254.37H364.742L349.126 275.812L353.086 281.249L347.578 293.824L337.005 270.085H344.739L332.77 243.21L335.474 238.692L317.048 207.911L315.922 205.383L315.052 207.337L296.281 238.692L299.036 243.295L295.654 250.888L272.281 212.676L243.437 259.833L245.774 263.654L231.976 284.036H242.385L233.097 297.756L229.608 289.336L232.34 285.522L222.105 271.232L219.394 264.691H226.938L220.292 248.654L222.651 245.412L214.051 233.594L198.827 196.862L183.604 233.594L175.003 245.412L177.363 248.654L170.716 264.691H178.351L175.764 270.934L165.315 285.522L168.104 289.416L164.312 298.566L140.963 260.94L128.557 280.93L111.581 257.614L109.849 254.37H120.422L111.774 238.165L114.672 234.186L95.8772 208.379L81.028 180.555L66.4193 207.928L47.2958 234.186L50.2449 238.235L41.634 254.37H51.6051L30.4737 283.391L34.1501 288.441L18.2576 318.219H33.8573L0 381.659V520H1440V381.659L1408.17 327.887H1422.95L1406.96 300.865L1411.73 294.412L1396.46 273.767H1400.85L1389.9 255.255L1392.18 252.172L1371.6 224.344L1363.82 211.201L1356.03 224.346L1335.46 252.172L1337.74 255.255L1326.78 273.767H1331.17L1326.51 280.076L1309.68 254.37H1317.11L1300.79 227.102L1304.28 221.772L1273.01 174L1242.77 220.207L1226.49 193.647L1220.17 180.555L1213.85 193.648L1191.81 229.597L1194.43 233.877L1184.54 254.37H1189.94L1174.1 275.853L1179.99 283.843L1172.44 299.489L1165.33 287.78L1170.23 281.056L1169.79 280.458H1170.45L1160.34 263.804L1165.12 257.703L1134.78 218.986L1123.89 232.878L1108.75 205.383L1095.87 228.773L1074.76 180.555L1060.62 212.844L1048.42 229.597L1051.45 233.762L1042.43 254.37H1051.09L1035.48 275.812L1039.44 281.249L1033.93 293.824L1023.35 270.085H1031.09L1019.12 243.21L1021.82 238.692L1003.4 207.911L1002.27 205.383L1001.4 207.337L982.631 238.692L985.386 243.295L982.004 250.888L958.631 212.676L929.786 259.833L932.124 263.654L918.326 284.036H928.734L919.447 297.756L915.957 289.336L918.689 285.522L908.454 271.232L905.743 264.691H913.288L906.642 248.654L909.001 245.412L900.4 233.594L885.177 196.862L869.954 233.594L861.353 245.412L863.712 248.654L857.066 264.691H864.701L862.114 270.934L851.665 285.522L854.454 289.416L850.662 298.566L827.312 260.94L814.907 280.93L797.93 257.614L796.199 254.37H806.772L798.124 238.165L801.022 234.186L782.227 208.379L767.378 180.555L752.769 207.928L733.645 234.186L736.594 238.235L727.984 254.37H737.955L717.023 283.117L710.108 273.767H714.505L703.546 255.255L705.826 252.172L685.247 224.344L677.466 211.201L669.684 224.346L649.106 252.172L651.386 255.255L640.427 273.767H644.825L640.158 280.076L623.334 254.37H630.763L614.439 227.102L617.928 221.772ZM161.357 305.696L161.542 305.249H161.08L161.357 305.696ZM847.707 305.696L847.892 305.249H847.429L847.707 305.696Z" fill="#617881"/>
</svg>
